<svg width="99" height="53" viewBox="0 0 99 53" fill="none" xmlns="http://www.w3.org/2000/svg">
<path d="M27.9354 33.6167C25.8408 40.5661 13.0332 40.6245 15.1278 32.5169L19.5497 17.4599H6.74936L2.32741 32.5169C-4.65462 56.8398 33.7538 56.7814 40.7358 33.6167L45.1505 18.6181C47.2451 11.6687 60.0455 11.6687 57.9509 19.7763L53.7617 33.6751H66.5621L70.7513 19.7763C77.7333 -4.54658 39.3322 -4.54658 32.3501 18.6181L27.9354 33.6167Z" fill="#0591DC"/>
<path d="M24.4372 1.47656H11.6368L8.14575 13.0589H20.9461L24.4372 1.47656Z" fill="#05AA64"/>
<path d="M70.9768 18.6772C73.0714 11.7278 85.8791 11.6694 83.7844 19.777L74.7078 49.8911L74.4751 50.8177L87.2755 50.8177L87.5082 49.8911L96.5848 19.777C103.567 -4.54588 65.1585 -4.48741 58.1764 18.6773L53.7617 33.6758C51.6671 40.6252 38.8667 40.6252 40.9613 32.5176L45.1506 18.6188H32.3502L28.161 32.5176C21.1789 56.8405 59.5801 56.8405 66.5621 33.6758L70.9768 18.6772Z" fill="#0591DC"/>
</svg>
