<svg width="55" height="76" viewBox="0 0 55 76" fill="none" xmlns="http://www.w3.org/2000/svg">
<path fill-rule="evenodd" clip-rule="evenodd" d="M2.55686 55.2623V5.40434C2.55685 0.467605 14.3724 0.485497 25.207 0.501903C25.8287 0.502844 26.4471 0.50378 27.0599 0.503776C27.6727 0.50378 28.2911 0.502888 28.9127 0.501947C39.7473 0.485541 51.5629 0.467649 51.5629 5.40439V55.2623C51.2433 56.6473 49.4961 59.4171 45.0643 59.4171H44.5317V59.9081L54.1198 75.4999H47.7277L40.7707 64.4203H13.3491L6.39209 75.4999H0L9.37516 60.2544V59.4171H9.05548C4.62363 59.4171 2.87646 56.6472 2.55686 55.2623ZM13.2103 53.1268C14.9755 53.1268 16.4064 51.6959 16.4064 49.9308C16.4064 48.1657 14.9755 46.7347 13.2103 46.7347C11.4452 46.7347 10.0143 48.1657 10.0143 49.9308C10.0143 51.6959 11.4452 53.1268 13.2103 53.1268ZM43.8923 49.9308C43.8923 51.6959 42.4613 53.1268 40.6962 53.1268C38.9311 53.1268 37.5002 51.6959 37.5002 49.9308C37.5002 48.1657 38.9311 46.7347 40.6962 46.7347C42.4613 46.7347 43.8923 48.1657 43.8923 49.9308ZM13.4235 11.153C11.1877 11.153 9.37519 12.9655 9.37519 15.2013V31.8206C9.37519 34.0564 11.1877 35.8689 13.4235 35.8689H40.4834C42.7192 35.8689 44.5317 34.0564 44.5317 31.8206V15.2013C44.5317 12.9655 42.7192 11.153 40.4834 11.153H13.4235ZM20.4546 5.82662C20.4546 4.41453 21.5993 3.2698 23.0114 3.2698H30.8951C32.3071 3.2698 33.4519 4.41453 33.4519 5.82662C33.4519 7.23871 32.3071 8.38343 30.8951 8.38343H23.0114C21.5993 8.38343 20.4546 7.23871 20.4546 5.82662Z" fill="var(--yellow)"/>
</svg>
