<svg width="15" height="21" viewBox="0 0 15 21" fill="none" xmlns="http://www.w3.org/2000/svg">
<path fill-rule="evenodd" clip-rule="evenodd" d="M1.15774 15.3234V1.95024C1.15774 0.626076 4.32697 0.630875 7.23309 0.635276C7.39983 0.635528 7.56571 0.63578 7.73008 0.635778C7.89444 0.63578 8.06031 0.63554 8.22705 0.635288C11.1332 0.630887 14.3024 0.626088 14.3024 1.95025V15.3234C14.2167 15.6949 13.748 16.4379 12.5593 16.4379H12.4165V16.5695L14.9882 20.7517H13.2737L11.4077 17.7798H4.05249L2.18645 20.7517H0.471924L2.98658 16.6624V16.4378H2.90084C1.7121 16.4378 1.24346 15.6949 1.15774 15.3234ZM4.01527 14.7506C4.48873 14.7506 4.87253 14.3668 4.87253 13.8934C4.87253 13.4199 4.48873 13.0361 4.01527 13.0361C3.54182 13.0361 3.15801 13.4199 3.15801 13.8934C3.15801 14.3668 3.54182 14.7506 4.01527 14.7506ZM12.245 13.8934C12.245 14.3668 11.8611 14.7506 11.3877 14.7506C10.9142 14.7506 10.5304 14.3668 10.5304 13.8934C10.5304 13.4199 10.9142 13.0361 11.3877 13.0361C11.8611 13.0361 12.245 13.4199 12.245 13.8934ZM4.07245 3.49217C3.47275 3.49217 2.98659 3.97833 2.98659 4.57803V9.03575C2.98659 9.63545 3.47275 10.1216 4.07245 10.1216H11.3306C11.9303 10.1216 12.4165 9.63545 12.4165 9.03575V4.57803C12.4165 3.97833 11.9303 3.49217 11.3306 3.49217H4.07245ZM5.95838 2.0635C5.95838 1.68474 6.26542 1.3777 6.64418 1.3777H8.75877C9.13753 1.3777 9.44457 1.68474 9.44457 2.0635C9.44457 2.44226 9.13753 2.7493 8.75877 2.7493H6.64418C6.26542 2.7493 5.95838 2.44226 5.95838 2.0635Z" fill="white"/>
</svg>
