<svg width="60" height="76" viewBox="0 0 60 76" fill="none" xmlns="http://www.w3.org/2000/svg">
<path fill-rule="evenodd" clip-rule="evenodd" d="M9.09091 75.5C6.81818 75.5 6.81818 73.2273 6.81818 66.4091H0V23.2273C0 2.77273 9.09091 0.5 20.4545 0.5H38.6364C50 0.5 59.0909 2.77273 59.0909 23.2273V66.4091H52.2727C52.2727 73.2273 52.2727 75.5 50 75.5H47.7273C45.4546 75.5 45.4546 73.2273 45.4546 66.4091H13.6364C13.6364 73.2273 13.6364 75.5 11.3636 75.5H9.09091ZM44.3049 54.2204C44.3049 55.1495 44.6741 56.0407 45.3311 56.6977C45.9881 57.3547 46.8792 57.7238 47.8084 57.7238C48.7375 57.7238 49.6286 57.3547 50.2856 56.6977C50.9427 56.0407 51.3118 55.1495 51.3118 54.2204C51.3118 53.2912 50.9427 52.4001 50.2856 51.7431C49.6286 51.0861 48.7375 50.717 47.8084 50.717C46.8792 50.717 45.9881 51.0861 45.3311 51.7431C44.6741 52.4001 44.3049 53.2912 44.3049 54.2204ZM52.2727 39.1372V39.1372H6.81813C6.81813 25.5008 6.81813 16.4099 11.3636 16.4099H47.7272C52.2727 16.4099 52.2727 25.5008 52.2727 39.1372ZM15.9096 7.31924C15.9096 5.04651 18.1823 5.04651 18.1823 5.04651H40.9096C40.9096 5.04651 43.1823 5.04651 43.1823 7.31924C43.1823 9.59196 40.9096 9.59196 40.9096 9.59196H18.1823C18.1823 9.59196 15.9096 9.59196 15.9096 7.31924ZM8.96731 56.6977C8.31029 56.0407 7.94119 55.1495 7.94119 54.2204C7.94119 53.2912 8.31029 52.4001 8.96731 51.7431C9.62433 51.0861 10.5154 50.717 11.4446 50.717C12.3738 50.717 13.2649 51.0861 13.9219 51.7431C14.5789 52.4001 14.948 53.2912 14.948 54.2204C14.948 55.1495 14.5789 56.0407 13.9219 56.6977C13.2649 57.3547 12.3738 57.7238 11.4446 57.7238C10.5154 57.7238 9.62433 57.3547 8.96731 56.6977Z" fill="white"/>
</svg>
