<svg width="126" height="60" viewBox="0 0 126 60" fill="none" xmlns="http://www.w3.org/2000/svg">
<g clip-path="url(#clip0_67_86)">
<mask id="mask0_67_86" style="mask-type:luminance" maskUnits="userSpaceOnUse" x="0" y="0" width="126" height="60">
<path d="M0.54541 0H126V60H0.54541V0ZM126 32.7273V27.2727H33.2727V0H27.8181V60H33.2727V32.7273H126Z" fill="white"/>
</mask>
<g mask="url(#mask0_67_86)">
<path d="M60.5454 30C60.5454 24.0666 58.786 18.2664 55.4895 13.3329C52.1931 8.39943 47.5077 4.55426 42.0259 2.28363C36.5441 0.0129986 30.5121 -0.581102 24.6927 0.576455C18.8733 1.73401 13.5278 4.59124 9.33222 8.78681C5.13664 12.9824 2.27942 18.3279 1.12187 24.1473C-0.0356914 29.9667 0.558409 35.9987 2.82904 41.4805C5.09967 46.9623 8.94484 51.6477 13.8783 54.9441C18.8118 58.2405 24.612 60 30.5454 60H60.5454V30ZM66 30C66 37.9565 69.1607 45.5871 74.7868 51.2132C80.4129 56.8393 88.0435 60 96 60C103.956 60 111.587 56.8393 117.213 51.2132C122.839 45.5871 126 37.9565 126 30C126 22.0435 122.839 14.4129 117.213 8.78681C111.587 3.16072 103.956 1.35795e-05 96 1.35795e-05C88.0435 1.35795e-05 80.4129 3.16072 74.7868 8.78681C69.1607 14.4129 66 22.0435 66 30Z" fill="white"/>
</g>
</g>
<defs>
<clipPath id="clip0_67_86">
<rect width="125.455" height="60" fill="white" transform="translate(0.54541)"/>
</clipPath>
</defs>
</svg>
