<svg width="176" height="56" viewBox="0 0 176 56" fill="none" xmlns="http://www.w3.org/2000/svg">
<path d="M33.8442 29.4693C29.8376 31.6596 25.7775 34.7047 21.8777 38.8182C19.7943 36.3608 19.3669 32.7281 20.7025 28.2406C22.7325 21.6697 27.6473 16.6481 33.8442 14.2975V1.15573C18.4587 4.14736 5.95802 14.5646 1.63085 28.6146C0.989786 30.7515 0.56241 32.9952 0.455566 35.1855V37.6963C0.936363 47.0451 7.24014 55.7529 24.7091 55.7529C25.5639 55.7529 26.5254 55.6995 27.4336 55.6995L33.7908 55.5926V42.344C28.1815 42.7714 24.1215 41.4893 21.8777 38.8716C25.7775 36.8416 29.7842 35.4526 33.7908 34.5978L33.8442 29.4693ZM33.8442 14.2975V1.15573C36.8359 0.621512 39.8809 0.247559 43.0328 0.247559C49.4434 0.247559 55.5335 1.52968 60.7689 3.88025L56.6554 17.4494C52.0077 14.4578 47.0395 12.8551 41.9644 12.8551C39.0796 12.8551 36.4085 13.3893 33.8442 14.2975ZM100.782 1.20915H70.0109L63.6002 22.4176C70.0643 22.8984 76.1544 24.0203 81.55 24.4477L85.9306 9.97034C102.598 7.40609 103.026 21.2958 92.6618 25.3024C79.4665 30.4309 56.228 17.2357 33.8442 29.4693V34.5978C37.7975 33.7431 41.8041 33.3691 45.7573 33.3157C41.8575 34.117 37.6906 35.3992 37.1564 37.0552L35.6072 42.1303C34.9661 42.1837 34.4319 42.2906 33.7908 42.344V55.6461L46.0244 55.3789L52.6488 33.5828C55.0527 33.7965 57.5101 34.0102 59.8607 34.2773L53.4501 55.3789H71.9875L77.8105 36.6279C81.176 37.0018 84.4348 37.1621 87.5332 37.1087L91.5399 55.3789H110.077L105.216 33.6897C101.102 35.9868 95.9205 36.7347 93.6768 36.9484C92.2344 37.1087 91.0057 37.0552 89.6701 37.0018C91.0591 36.895 92.4481 36.7347 93.837 36.521C105.697 34.3841 114.084 24.5011 116.221 17.3426C116.755 15.4728 117.236 13.4428 117.236 11.5196V11.4662C117.236 6.07054 113.924 1.20915 100.782 1.20915Z" fill="white"/>
<path d="M176 1.20898L171.886 14.885H155.005L142.718 55.3788H123.753L135.506 16.7548L147.205 14.885H119.212L123.326 1.20898H176Z" fill="white"/>
</svg>
